<?xml version="1.0" encoding="UTF-8" standalone="no"?>
<!-- Generator: Adobe Illustrator 21.1.0, SVG Export Plug-In . SVG Version: 6.00 Build 0)  -->

<svg
   version="1.1"
   id="Layer_1"
   x="0px"
   y="0px"
   viewBox="0 0 67.476 68.213"
   style="enable-background:new 0 0 67.476 68.213;"
   xml:space="preserve"
   sodipodi:docname="checked.svg"
   inkscape:version="1.1.1 (3bf5ae0, 2021-09-20)"
   xmlns:inkscape="http://www.inkscape.org/namespaces/inkscape"
   xmlns:sodipodi="http://sodipodi.sourceforge.net/DTD/sodipodi-0.dtd"
   xmlns="http://www.w3.org/2000/svg"
   xmlns:svg="http://www.w3.org/2000/svg"><defs
   id="defs41" /><sodipodi:namedview
   id="namedview39"
   pagecolor="#ffffff"
   bordercolor="#666666"
   borderopacity="1.0"
   inkscape:pageshadow="2"
   inkscape:pageopacity="0.0"
   inkscape:pagecheckerboard="0"
   showgrid="false"
   inkscape:object-nodes="true"
   inkscape:snap-others="true"
   inkscape:zoom="5.9959245"
   inkscape:cx="35.19057"
   inkscape:cy="32.688871"
   inkscape:window-width="1920"
   inkscape:window-height="1014"
   inkscape:window-x="1366"
   inkscape:window-y="38"
   inkscape:window-maximized="1"
   inkscape:current-layer="Layer_1" />

<path
   style="fill:#8b83ba;fill-opacity:1;stroke:none;stroke-opacity:1"
   d="M 64.36,68.213 H 3.117 C 1.396,68.213 0,66.819 0,65.097 V 3.117 C 0,1.396 1.396,0 3.117,0 H 64.36 c 1.722,0 3.116,1.396 3.116,3.117 v 61.98 c 0,1.722 -1.394,3.116 -3.116,3.116 z m -3.117,-6.232 c -40.828667,-41.320667 -20.414333,-20.660333 0,0 z"
   id="path36"
   sodipodi:nodetypes="ssssssssscc" /><path
   style="fill:#f9f9f9"
   d="m 29.297797,49.527756 c -0.793,0 -1.558,-0.302 -2.137,-0.848 l -11.456,-10.791 c -1.253,-1.18 -1.312,-3.152 -0.132,-4.405 1.181,-1.252 3.153,-1.311 4.405,-0.132 l 9.143,8.612 21.076,-23.269 c 1.155,-1.276 3.125,-1.374 4.401,-0.218 1.276,1.156 1.373,3.126 0.218,4.402 l -23.208,25.624 c -0.562,0.621 -1.35,0.989 -2.187,1.022 -0.041,0.002 -0.082,0.003 -0.123,0.003 z"
   id="path34" />
</svg>
