<svg width="64" height="64" viewBox="0 0 64 64" fill="none" xmlns="http://www.w3.org/2000/svg">
<path d="M52 32.75H34.25C33.8522 32.75 33.4706 32.908 33.1893 33.1893C32.908 33.4706 32.75 33.8522 32.75 34.25V52C32.75 52.3978 32.908 52.7794 33.1893 53.0607C33.4706 53.342 33.8522 53.5 34.25 53.5H48.62C49.9134 53.4974 51.1532 52.9824 52.0678 52.0678C52.9824 51.1532 53.4974 49.9134 53.5 48.62V34.25C53.5 33.8522 53.342 33.4706 53.0607 33.1893C52.7794 32.908 52.3978 32.75 52 32.75ZM50.5 48.62C50.5 49.1186 50.3019 49.5968 49.9494 49.9494C49.5968 50.3019 49.1186 50.5 48.62 50.5H35.75V35.75H50.5V48.62Z" fill="#F4F4F4"/>
<path d="M48.62 10.5H34.25C33.8522 10.5 33.4706 10.658 33.1893 10.9393C32.908 11.2206 32.75 11.6022 32.75 12V29.75C32.75 30.1478 32.908 30.5294 33.1893 30.8107C33.4706 31.092 33.8522 31.25 34.25 31.25H52C52.3978 31.25 52.7794 31.092 53.0607 30.8107C53.342 30.5294 53.5 30.1478 53.5 29.75V15.38C53.4974 14.0866 52.9824 12.8468 52.0678 11.9322C51.1532 11.0176 49.9134 10.5026 48.62 10.5ZM50.5 28.25H35.75V13.5H48.62C49.1186 13.5 49.5968 13.6981 49.9494 14.0506C50.3019 14.4032 50.5 14.8814 50.5 15.38V28.25Z" fill="#F4F4F4"/>
<path d="M29.75 32.75H12C11.6022 32.75 11.2206 32.908 10.9393 33.1893C10.658 33.4706 10.5 33.8522 10.5 34.25V48.62C10.5026 49.9134 11.0176 51.1532 11.9322 52.0678C12.8468 52.9824 14.0866 53.4974 15.38 53.5H29.75C30.1478 53.5 30.5294 53.342 30.8107 53.0607C31.092 52.7794 31.25 52.3978 31.25 52V34.25C31.25 33.8522 31.092 33.4706 30.8107 33.1893C30.5294 32.908 30.1478 32.75 29.75 32.75ZM28.25 50.5H15.38C14.8814 50.5 14.4032 50.3019 14.0506 49.9494C13.6981 49.5968 13.5 49.1186 13.5 48.62V35.75H28.25V50.5Z" fill="#F4F4F4"/>
<path d="M29.75 10.5H15.38C14.0866 10.5026 12.8468 11.0176 11.9322 11.9322C11.0176 12.8468 10.5026 14.0866 10.5 15.38V29.75C10.5 30.1478 10.658 30.5294 10.9393 30.8107C11.2206 31.092 11.6022 31.25 12 31.25H29.75C30.1478 31.25 30.5294 31.092 30.8107 30.8107C31.092 30.5294 31.25 30.1478 31.25 29.75V12C31.25 11.6022 31.092 11.2206 30.8107 10.9393C30.5294 10.658 30.1478 10.5 29.75 10.5ZM28.25 28.25H13.5V15.38C13.5 14.8814 13.6981 14.4032 14.0506 14.0506C14.4032 13.6981 14.8814 13.5 15.38 13.5H28.25V28.25Z" fill="#F4F4F4"/>
</svg>
