<?xml version="1.0" encoding="UTF-8" standalone="no"?> <svg id="Layer_1" data-name="Layer 1" xmlns="http://www.w3.org/2000/svg" viewBox="0 0 128 128"><defs><style>.cls-1{fill:#2d3e50;}</style></defs><title>a</title><path class="cls-1" d="M117.49326,98.27951a11.41528,11.41528,0,0,0-6.1519-8.2847c-10.697-5.33411-34.17046-13.212-34.17046-13.212V69.03229l.65343-.49313a22.42566,22.42566,0,0,0,8.51484-14.25174l.13151-.826h.637a8.66287,8.66287,0,0,0,8.01764-5.39167A9.43369,9.43369,0,0,0,96.30471,43.5a8.67979,8.67979,0,0,0-.61644-3.21363A4.48227,4.48227,0,0,0,93.95,37.49191l-2.16572-1.315.53834-2.35062c3.91226-17.0544-9.29979-32.41574-27.04046-32.839C64.85067.979,64.42327.975,64,.98315,63.57669.975,63.14933.979,62.71783.98726c-17.74068.42329-30.95269,15.78463-27.04046,32.839l.53834,2.35062L34.05,37.49191a4.48232,4.48232,0,0,0-1.73833,2.79448A8.67976,8.67976,0,0,0,31.69529,43.5a9.4333,9.4333,0,0,0,1.17942,4.56973,8.66286,8.66286,0,0,0,8.0176,5.39167h.637l.13151.826a22.42566,22.42566,0,0,0,8.51484,14.25174l.65343.49313v7.75047s-23.4734,7.87794-34.17042,13.212a11.4151,11.4151,0,0,0-6.1519,8.2847c-1.83285,10.697-2.15747,28.7418-2.15747,28.7418H119.65073S119.32607,108.97654,117.49326,98.27951Z"/></svg>