<svg width="12" height="20" viewBox="0 0 12 20" fill="none" xmlns="http://www.w3.org/2000/svg">
<path d="M11.4415 17.4648L3.69501 10L11.4415 2.53521C11.7232 2.25352 11.8875 1.90141 11.8875 1.50235C11.8875 1.10329 11.7467 0.7277 11.465 0.446009C11.1833 0.164319 10.8312 0 10.4321 0H10.4086C10.033 0 9.65745 0.140845 9.37576 0.422535L0.525996 8.94366C0.244306 9.22535 0.0799866 9.60094 0.0799866 10C0.0799866 10.3991 0.244306 10.7981 0.525996 11.0563L9.39924 19.5775C9.68093 19.8357 10.033 20 10.4321 20C10.8312 20 11.2067 19.8357 11.4884 19.554C11.7701 19.2723 11.911 18.8967 11.911 18.4977C11.911 18.0986 11.7467 17.723 11.4415 17.4648Z" fill="#8B83BA"/>
</svg>
