<svg width="12" height="20" viewBox="0 0 12 20" fill="none" xmlns="http://www.w3.org/2000/svg">
<path d="M0.469491 2.53521L8.21597 10L0.469491 17.4648C0.187801 17.7465 0.0234817 18.0986 0.0234817 18.4977C0.0234817 18.8967 0.164326 19.2723 0.446016 19.554C0.727706 19.8357 1.07982 20 1.47888 20H1.50235C1.87794 20 2.25353 19.8592 2.53522 19.5775L11.385 11.0563C11.6667 10.7746 11.831 10.3991 11.831 10C11.831 9.60094 11.6667 9.20188 11.385 8.94366L2.51174 0.422534C2.23005 0.164318 1.87794 3.09217e-08 1.47888 3.09217e-08C1.07982 3.09217e-08 0.704232 0.16432 0.422542 0.44601C0.140852 0.7277 7.86865e-06 1.10329 7.86865e-06 1.50235C7.86865e-06 1.90141 0.164327 2.27699 0.469491 2.53521Z" fill="#8B83BA"/>
</svg>
