<svg width="24" height="24" viewBox="0 0 24 24" fill="none" xmlns="http://www.w3.org/2000/svg">
<path fill-rule="evenodd" clip-rule="evenodd" d="M8.25 4.8C8.25 4.1376 8.78759 3.6 9.44999 3.6C10.1124 3.6 10.65 4.1376 10.65 4.8C10.65 5.4624 10.1124 6 9.44999 6C8.78759 6 8.25 5.4624 8.25 4.8ZM21.6 20.4C21.6 21.0624 21.0624 21.6 20.4 21.6H19.2V16.8C19.2 15.474 18.126 14.4 16.8 14.4H7.19999C5.87399 14.4 4.80001 15.474 4.80001 16.8V21.6H3.59999C2.93759 21.6 2.40001 21.0624 2.40001 20.4V8.45281C2.40001 8.29321 2.4636 8.14081 2.5752 8.02921L4.80001 5.80441V7.2C4.80001 8.526 5.87399 9.6 7.19999 9.6H16.8C18.126 9.6 19.2 8.526 19.2 7.2V2.4H20.4C21.0624 2.4 21.6 2.9376 21.6 3.6V20.4ZM16.8 21.6H7.19999V18C7.19999 17.3376 7.73761 16.8 8.40001 16.8H15.6C16.2624 16.8 16.8 17.3376 16.8 18V21.6ZM7.19999 3.40441L8.20442 2.4H16.8V6C16.8 6.6624 16.2624 7.2 15.6 7.2H8.40001C7.73761 7.2 7.19999 6.6624 7.19999 6V3.40441ZM21.6 0H7.69681C7.37881 0 7.07399 0.125999 6.84839 0.351599L0.351597 6.8484C0.125997 7.074 0 7.3788 0 7.6968V21.6C0 22.926 1.07401 24 2.40001 24H21.6C22.926 24 24 22.926 24 21.6V2.4C24 1.074 22.926 0 21.6 0Z" fill="#61676D"/>
</svg>
